<?xml version="1.0" encoding="utf-8"?>
<!-- Generator: Adobe Illustrator 24.0.3, SVG Export Plug-In . SVG Version: 6.00 Build 0)  -->
<svg version="1.1" xmlns="http://www.w3.org/2000/svg" xmlns:xlink="http://www.w3.org/1999/xlink" x="0px" y="0px"
	 viewBox="0 0 1920 1080" style="enable-background:new 0 0 1920 1080;" xml:space="preserve">
<style type="text/css">
	.st0{display:none;}
	.st1{display:inline;fill:#FFFFFF;stroke:#000000;stroke-miterlimit:10;}
	.st2{fill:#7E2E84;}
	.st3{fill:#FFFFFF;stroke:#000000;stroke-miterlimit:10;}
	.st4{fill:#66306A;}
</style>
<g id="Layer_1" class="st0">
	<path class="st1" d="M407.5,173.5c-2.67,250.67-5.33,501.33-8,752"/>
	<path class="st1" d="M553.5,175.5c-4,249.33-8,498.67-12,748"/>
	<path class="st1" d="M709.5,173.5c2.33,243,4.67,486,7,729"/>
	<path class="st1" d="M837.5,160.5c0.67,245.67,1.33,491.33,2,737"/>
	<path class="st1" d="M317.5,185.5c307,305.33,614,610.67,921,916"/>
	<path class="st1" d="M207.5,325.5c278.67,274,557.33,548,836,822"/>
	<path class="st1" d="M195.5,1010.5c529.67-21,1059.33-42,1589-63"/>
	<path class="st1" d="M382.5,193.5c148-64.33,296-128.67,444-193"/>
</g>
<g id="Layer_2">
	<path class="st2" d="M642.5,206.5c24.54,80.23,108.83,389.27-58,663c-39.02,64.03-84.73,114.54-129,154c115.33-5,230.67-10,346-15
		c2.34-155.38,4.68-310.76,7.02-466.14c11.49-3.79,22.99-7.58,34.48-11.36c0.33,159,0.67,318,1,477c21.33-0.33,42.67-0.67,64-1
		c34.99-180.71,58.29-406.24,38-663c-7.23-91.46-19.21-176.98-34-256c-23,10.33-46,20.67-69,31c0.33,86,0.67,172,1,258
		c-11.17,4.5-22.33,9-33.5,13.5c1-85.67,2-171.33,3-257C756.5,157.83,699.5,182.17,642.5,206.5z"/>
	<path class="st3" d="M-6.5,12.5"/>
	<path class="st4" d="M912,88c-1.33,306.33-2.67,612.67-4,919c171.83-7.17,343.67-14.33,515.5-21.5c85-25,100-135,100-212
		c-70.49,42.93-192.8,104.14-357,120c-51.48,4.97-77.68,7.25-100-3c-165.15-75.83-24.43-711.92,14-877
		C1024.33,38.33,968.17,63.17,912,88z"/>
	<path class="st3" d="M917.5,482.5"/>
	<path class="st3" d="M834.5,488.5"/>
	<path class="st3" d="M1225.5,511.5"/>
</g>
</svg>
